<svg width="131" height="88" viewBox="0 0 131 88" fill="none" xmlns="http://www.w3.org/2000/svg">
<path d="M18.216 26.968C19.704 27.304 20.88 28.048 21.744 29.2C22.632 30.328 23.076 31.624 23.076 33.088C23.076 35.248 22.332 36.94 20.844 38.164C19.356 39.388 17.268 40 14.58 40H2.016V14.62H14.184C16.776 14.62 18.804 15.196 20.268 16.348C21.756 17.5 22.5 19.12 22.5 21.208C22.5 22.696 22.104 23.944 21.312 24.952C20.544 25.936 19.512 26.608 18.216 26.968ZM9.072 24.7H12.636C14.412 24.7 15.3 23.968 15.3 22.504C15.3 20.992 14.412 20.236 12.636 20.236H9.072V24.7ZM13.176 34.312C14.952 34.312 15.84 33.568 15.84 32.08C15.84 31.312 15.6 30.724 15.12 30.316C14.664 29.908 14.004 29.704 13.14 29.704H9.072V34.312H13.176ZM38.3363 40.252C35.9603 40.252 33.7763 39.7 31.7843 38.596C29.7923 37.468 28.2083 35.92 27.0323 33.952C25.8803 31.96 25.3043 29.716 25.3043 27.22C25.3043 24.724 25.8803 22.492 27.0323 20.524C28.2083 18.532 29.7923 16.984 31.7843 15.88C33.7763 14.776 35.9603 14.224 38.3363 14.224C40.7363 14.224 42.9203 14.776 44.8883 15.88C46.8803 16.984 48.4523 18.532 49.6043 20.524C50.7563 22.492 51.3323 24.724 51.3323 27.22C51.3323 29.716 50.7563 31.96 49.6043 33.952C48.4523 35.92 46.8803 37.468 44.8883 38.596C42.8963 39.7 40.7123 40.252 38.3363 40.252ZM38.3363 33.7C40.1363 33.7 41.5523 33.112 42.5843 31.936C43.6403 30.76 44.1683 29.188 44.1683 27.22C44.1683 25.204 43.6403 23.62 42.5843 22.468C41.5523 21.292 40.1363 20.704 38.3363 20.704C36.5123 20.704 35.0843 21.292 34.0523 22.468C33.0203 23.62 32.5043 25.204 32.5043 27.22C32.5043 29.212 33.0203 30.796 34.0523 31.972C35.0843 33.124 36.5123 33.7 38.3363 33.7Z" fill="#197BBD"/>
<path d="M66.6723 40.252C64.2963 40.252 62.1123 39.7 60.1203 38.596C58.1283 37.468 56.5443 35.92 55.3683 33.952C54.2163 31.96 53.6403 29.716 53.6403 27.22C53.6403 24.724 54.2163 22.492 55.3683 20.524C56.5443 18.532 58.1283 16.984 60.1203 15.88C62.1123 14.776 64.2963 14.224 66.6723 14.224C69.0723 14.224 71.2563 14.776 73.2243 15.88C75.2163 16.984 76.7883 18.532 77.9403 20.524C79.0923 22.492 79.6683 24.724 79.6683 27.22C79.6683 29.716 79.0923 31.96 77.9403 33.952C76.7883 35.92 75.2163 37.468 73.2243 38.596C71.2323 39.7 69.0483 40.252 66.6723 40.252ZM66.6723 33.7C68.4723 33.7 69.8883 33.112 70.9203 31.936C71.9763 30.76 72.5043 29.188 72.5043 27.22C72.5043 25.204 71.9763 23.62 70.9203 22.468C69.8883 21.292 68.4723 20.704 66.6723 20.704C64.8483 20.704 63.4203 21.292 62.3883 22.468C61.3563 23.62 60.8403 25.204 60.8403 27.22C60.8403 29.212 61.3563 30.796 62.3883 31.972C63.4203 33.124 64.8483 33.7 66.6723 33.7ZM97.8522 40L89.8962 28.876V40H82.8402V14.62H89.8962V25.564L97.7802 14.62H105.916L96.5922 26.932L106.384 40H97.8522Z" fill="black"/>
<path d="M31.644 48.62V74H24.588V59.996L19.8 74H13.896L9.072 59.888V74H2.016V48.62H10.548L16.92 65.108L23.148 48.62H31.644ZM51.7165 69.86H42.7165L41.3485 74H33.9325L43.1845 48.62H51.3205L60.5365 74H53.0845L51.7165 69.86ZM49.9525 64.46L47.2165 56.252L44.5165 64.46H49.9525Z" fill="black"/>
<path d="M86.3443 74H79.2883L69.8923 59.816V74H62.8363V48.62H69.8923L79.2883 62.984V48.62H86.3443V74ZM97.4197 48.62V74H90.3637V48.62H97.4197ZM117.494 69.86H108.494L107.126 74H99.7099L108.962 48.62H117.098L126.314 74H118.862L117.494 69.86ZM115.73 64.46L112.994 56.252L110.294 64.46H115.73Z" fill="#197BBD"/>
</svg>
